<?xml version="1.0" standalone="no"?><!DOCTYPE svg PUBLIC "-//W3C//DTD SVG 1.1//EN" "http://www.w3.org/Graphics/SVG/1.1/DTD/svg11.dtd">
<svg t="1695000559716" class="icon" viewBox="0 0 1024 1024" version="1.1" xmlns="http://www.w3.org/2000/svg" p-id="4472"
     width="200" height="200"><path d="M516.266667 951.466667c-8.533333 0-17.066667-4.266667-21.333334-12.8l-59.733333-132.266667C256 768 128 618.666667 128 443.733333c0-204.8 170.666667-366.933333 384-366.933333s384 166.4 384 366.933333c0 174.933333-128 324.266667-302.933333 358.4l-55.466667 132.266667c0 8.533333-12.8 17.066667-21.333333 17.066667zM512 123.733333c-183.466667 0-332.8 145.066667-332.8 320 0 157.866667 115.2 290.133333 277.333333 315.733334 8.533333 0 17.066667 8.533333 17.066667 12.8l42.666667 89.6 38.4-89.6c4.266667-8.533333 8.533333-12.8 17.066666-12.8 157.866667-25.6 273.066667-157.866667 273.066667-311.466667 0-179.2-149.333333-324.266667-332.8-324.266667z" fill="#6A3906" p-id="4473"></path><path d="M780.8 452.266667c0-149.333333-132.266667-256-268.8-256-149.333333 0-268.8 115.2-268.8 256 0 128 98.133333 234.666667 226.133333 256 17.066667 0 29.866667 0 46.933334 4.266666 145.066667-4.266667 264.533333-119.466667 264.533333-260.266666z" fill="#F5CB2B" p-id="4474"></path><path d="M512 558.933333c-59.733333 0-110.933333-51.2-110.933333-110.933333S452.266667 341.333333 512 341.333333c59.733333 0 110.933333 51.2 110.933333 110.933334s-51.2 106.666667-110.933333 106.666666z m0-170.666666c-34.133333 0-59.733333 25.6-59.733333 59.733333S477.866667 512 512 512s59.733333-25.6 59.733333-59.733333-25.6-64-59.733333-64z" fill="#6A3906" p-id="4475"></path></svg>